<?xml version="1.0" encoding="utf-8"?>
<!-- Generator: Adobe Illustrator 22.0.1, SVG Export Plug-In . SVG Version: 6.00 Build 0)  -->
<svg version="1.1" xmlns="http://www.w3.org/2000/svg" xmlns:xlink="http://www.w3.org/1999/xlink" x="0px" y="0px"
	 viewBox="0 0 500.60687 232.44" style="enable-background:new 0 0 500.60687 232.44;" xml:space="preserve">
<style type="text/css">
	.st0{display:none;}
	.st1{display:inline;}
	.st2{fill:none;stroke:#f3f4f0;stroke-linecap:round;stroke-linejoin:round;stroke-miterlimit:10;}
	.st3{display:inline;fill:none;stroke:#f3f4f0;stroke-linecap:round;stroke-linejoin:round;stroke-miterlimit:10;}
	.st4{fill:#f3f4f0;}
</style>
<g id="Layer_2">
</g>
<g id="Layer_1">
	<g class="st0">
		<g class="st1">
			<path class="st2" d="M-519.56866,189.11908c2.66919-1.77943,90.85583-48.26018,90.85583-48.26018l167.16367,48.26018
				l50.71416-13.34583L2.35822,259.12h85.86886l88.85686-52.05798l81.85448,5.92502L408.41177,116.22l90.75168,50.65602
				l95.20026-27.58139"/>
		</g>
		<polyline class="st3" points="420.49844,122.97 508.05844,85.91 614.82843,103.71 		"/>
		<polyline class="st3" points="197.43315,208.53499 218.29202,187.67 278.73706,182.96611 355.47842,150.49001 		"/>
	</g>
	<g>
		<g>
			<path class="st4" d="M96.29587,103.95828v30.75195H76.20798v-31l-33.604-55.7998h21.32764L87.1196,86.47391l23.18799-38.56348
				h19.71631L96.29587,103.95828z"/>
			<path class="st4" d="M163.81345,130.37039c-7.23438-3.88477-12.896-9.23828-16.98779-16.05859
				c-4.09229-6.81934-6.13818-14.48633-6.13818-23.00195c0-8.51367,2.0459-16.18164,6.13818-23.00195
				c4.0918-6.82031,9.75342-12.1709,16.98779-16.05762c7.23291-3.88477,15.35498-5.82813,24.36621-5.82813
				c9.00928,0,17.11182,1.94336,24.30371,5.82813c7.19238,3.88672,12.85352,9.2373,16.98828,16.05762
				c4.13281,6.82031,6.19971,14.48828,6.19971,23.00195c0,8.51563-2.06689,16.18262-6.19971,23.00195
				c-4.13477,6.82031-9.7959,12.17383-16.98828,16.05859c-7.19189,3.88672-15.29443,5.82813-24.30371,5.82813
				C179.16843,136.19852,171.04636,134.25711,163.81345,130.37039z M202.06735,115.55203
				c4.13281-2.35645,7.37842-5.6416,9.73438-9.8584c2.35596-4.21582,3.53369-9.00879,3.53369-14.38379
				c0-5.37207-1.17773-10.16797-3.53369-14.38379s-5.60156-7.50195-9.73438-9.8584c-4.13428-2.35547-8.76318-3.5332-13.8877-3.5332
				c-5.12695,0-9.75537,1.17773-13.88818,3.5332c-4.13477,2.35645-7.37793,5.64258-9.73389,9.8584
				s-3.53418,9.01172-3.53418,14.38379c0,5.375,1.17822,10.16797,3.53418,14.38379c2.35596,4.2168,5.59912,7.50195,9.73389,9.8584
				c4.13281,2.35645,8.76123,3.53418,13.88818,3.53418C193.30417,119.08621,197.93307,117.90848,202.06735,115.55203z"/>
			<path class="st4" d="M337.5986,97.44754c2.80908,3.67969,4.21582,8.20605,4.21582,13.57813
				c0,7.60742-2.95654,13.4541-8.86572,17.5459c-5.91162,4.09277-14.5293,6.13867-25.854,6.13867h-44.88818v-86.7998h42.4082
				c10.58057,0,18.70264,2.02637,24.36572,6.0752c5.66162,4.05176,8.49414,9.54883,8.49414,16.49219
				c0,4.21582-1.01318,7.97852-3.03809,11.28418c-2.02637,3.30762-4.85742,5.91113-8.49414,7.81152
				C330.90231,91.14578,334.78708,93.77078,337.5986,97.44754z M282.17038,63.03836v20.45996h19.96436
				c4.95996,0,8.7207-0.86816,11.28369-2.60449c2.56152-1.73535,3.84424-4.29688,3.84424-7.6875
				c0-3.38867-1.28271-5.93066-3.84424-7.62598c-2.56299-1.69336-6.32373-2.54199-11.28369-2.54199H282.17038z M317.57272,116.97781
				c2.68506-1.73535,4.02979-4.4209,4.02979-8.05957c0-7.19238-5.33203-10.78809-15.99609-10.78809h-23.43604v21.45215h23.43604
				C310.89597,119.58231,314.88522,118.71414,317.57272,116.97781z"/>
			<path class="st4" d="M386.1445,130.37039c-7.23438-3.88477-12.896-9.23828-16.98779-16.05859
				c-4.09229-6.81934-6.13818-14.48633-6.13818-23.00195c0-8.51367,2.0459-16.18164,6.13818-23.00195
				c4.0918-6.82031,9.75342-12.1709,16.98779-16.05762c7.23291-3.88477,15.35498-5.82813,24.36621-5.82813
				c9.00928,0,17.11182,1.94336,24.30371,5.82813c7.19238,3.88672,12.85352,9.2373,16.98828,16.05762
				c4.13281,6.82031,6.2002,14.48828,6.2002,23.00195c0,8.51563-2.06738,16.18262-6.2002,23.00195
				c-4.13477,6.82031-9.7959,12.17383-16.98828,16.05859c-7.19189,3.88672-15.29443,5.82813-24.30371,5.82813
				C401.49948,136.19852,393.37741,134.25711,386.1445,130.37039z M424.39841,115.55203
				c4.13281-2.35645,7.37842-5.6416,9.73438-9.8584c2.35596-4.21582,3.53369-9.00879,3.53369-14.38379
				c0-5.37207-1.17773-10.16797-3.53369-14.38379s-5.60156-7.50195-9.73438-9.8584c-4.13428-2.35547-8.76318-3.5332-13.8877-3.5332
				c-5.12695,0-9.75537,1.17773-13.88818,3.5332c-4.13477,2.35645-7.37793,5.64258-9.73389,9.8584
				s-3.53418,9.01172-3.53418,14.38379c0,5.375,1.17822,10.16797,3.53418,14.38379c2.35596,4.2168,5.59912,7.50195,9.73389,9.8584
				c4.13281,2.35645,8.76123,3.53418,13.88818,3.53418C415.63522,119.08621,420.26413,117.90848,424.39841,115.55203z"/>
		</g>
		<g>
			<path class="st4" d="M53.93894,163.40164h10.10107c2.41406,0,4.54736,0.46094,6.40039,1.38184
				c1.85303,0.92188,3.29297,2.21875,4.32031,3.8916c1.02686,1.67285,1.54053,3.62109,1.54053,5.84473
				s-0.51367,4.17188-1.54053,5.84473c-1.02734,1.67285-2.46729,2.96973-4.32031,3.89063s-3.98633,1.38184-6.40039,1.38184H53.93894
				V163.40164z M63.78611,181.41238c2.22363,0,3.99658-0.61914,5.32031-1.8584c1.32324-1.23828,1.98535-2.91699,1.98535-5.03418
				s-0.66211-3.7959-1.98535-5.03516c-1.32373-1.23828-3.09668-1.8584-5.32031-1.8584h-4.70117v13.78613H63.78611z"/>
			<path class="st4" d="M80.17575,163.40164h5.146v22.23535h-5.146V163.40164z"/>
			<path class="st4" d="M92.80222,185.30301c-1.6416-0.47559-2.95996-1.0957-3.95508-1.85742l1.74707-3.87598
				c0.95313,0.69922,2.08594,1.26074,3.39893,1.68359c1.31299,0.42383,2.62549,0.63574,3.93896,0.63574
				c1.46094,0,2.54102-0.2168,3.23975-0.65137c0.69873-0.43359,1.04834-1.01074,1.04834-1.73145
				c0-0.52832-0.20654-0.96875-0.61963-1.31738c-0.4126-0.34961-0.94238-0.62988-1.58789-0.8418
				c-0.64648-0.21191-1.52002-0.44531-2.62061-0.69922c-1.69434-0.40234-3.08105-0.80469-4.16113-1.20703
				s-2.00684-1.04785-2.7793-1.9375c-0.77344-0.88965-1.15967-2.0752-1.15967-3.55762c0-1.29102,0.34961-2.46191,1.04834-3.50977
				c0.69873-1.04883,1.75195-1.87891,3.16064-2.49414c1.40771-0.61328,3.12842-0.9209,5.16162-0.9209
				c1.41846,0,2.80566,0.16992,4.16113,0.50879c1.35498,0.33887,2.54102,0.8252,3.55762,1.46094l-1.58838,3.90723
				c-2.0542-1.16504-4.1084-1.74707-6.16211-1.74707c-1.44043,0-2.50439,0.23242-3.19238,0.69824
				c-0.68848,0.46582-1.03223,1.08008-1.03223,1.84277c0,0.76172,0.39697,1.3291,1.19092,1.69922
				c0.79443,0.37109,2.00635,0.73633,3.63721,1.0957c1.69385,0.40234,3.08105,0.80469,4.16113,1.20703
				s2.00586,1.03809,2.7793,1.90625c0.77295,0.86816,1.15918,2.04395,1.15918,3.52539c0,1.27051-0.35449,2.42969-1.06396,3.47852
				c-0.70947,1.04785-1.77393,1.87891-3.19238,2.49316c-1.41895,0.61426-3.14453,0.9209-5.17725,0.9209
				C96.14206,186.01785,94.44284,185.77957,92.80222,185.30301z"/>
			<path class="st4" d="M128.07516,181.50809v4.12891h-17.21631v-22.23535h16.80322v4.12988h-11.68896v4.82813h10.32324v4.00195
				h-10.32324v5.14648H128.07516z"/>
			<path class="st4" d="M152.56491,163.40164v22.23535h-4.22461l-11.08545-13.5v13.5h-5.08252v-22.23535h4.25684l11.05371,13.5
				v-13.5H152.56491z M143.24216,161.35281c-0.43408-0.22168-0.91602-0.52344-1.44531-0.90527
				c-0.33887-0.25391-0.61914-0.44434-0.84131-0.57129c-0.22266-0.12695-0.43994-0.19043-0.65137-0.19043
				c-0.44482,0-0.80518,0.15332-1.08008,0.45996c-0.27539,0.30762-0.42383,0.74707-0.44482,1.31836h-2.50928
				c0.04248-1.41797,0.39697-2.5459,1.06445-3.38281c0.66699-0.83594,1.55078-1.25488,2.65186-1.25488
				c0.55078,0,1.04297,0.11133,1.47705,0.33398s0.92627,0.53516,1.47705,0.9375c0.33887,0.25391,0.61963,0.44434,0.8418,0.57129
				c0.22266,0.12695,0.43945,0.19043,0.65137,0.19043c0.42334,0,0.77832-0.15332,1.06396-0.45996
				c0.28613-0.30762,0.43945-0.72559,0.46045-1.25488h2.50977c-0.04297,1.37695-0.39746,2.47754-1.06445,3.30273
				c-0.66699,0.82617-1.55127,1.23926-2.65234,1.23926C144.17917,161.6868,143.67624,161.57547,143.24216,161.35281z"/>
			<path class="st4" d="M162.36423,184.52567c-1.85303-0.99512-3.30322-2.36719-4.35156-4.11426s-1.57227-3.71094-1.57227-5.8916
				s0.52393-4.14551,1.57227-5.89258s2.49854-3.11816,4.35156-4.11328s3.93359-1.49316,6.2417-1.49316
				s4.38379,0.49805,6.22607,1.49316s3.29248,2.36621,4.35156,4.11328c1.05859,1.74707,1.58838,3.71191,1.58838,5.89258
				s-0.52979,4.14453-1.58838,5.8916c-1.05908,1.74707-2.50928,3.11914-4.35156,4.11426s-3.91797,1.49219-6.22607,1.49219
				S164.21725,185.52078,162.36423,184.52567z M172.16354,180.72977c1.05859-0.60352,1.89014-1.44531,2.49365-2.52539
				s0.90527-2.30762,0.90527-3.68457s-0.30176-2.60449-0.90527-3.68457s-1.43506-1.92188-2.49365-2.52539
				c-1.05908-0.60352-2.24463-0.90527-3.55762-0.90527s-2.49854,0.30176-3.55762,0.90527s-1.88965,1.44531-2.49316,2.52539
				s-0.90527,2.30762-0.90527,3.68457s0.30176,2.60449,0.90527,3.68457s1.43408,1.92188,2.49316,2.52539
				s2.24463,0.90527,3.55762,0.90527S171.10446,181.33328,172.16354,180.72977z"/>
			<path class="st4" d="M204.30856,177.75906v7.87793h-5.14551v-7.94141l-8.6084-14.29395h5.46338l5.93994,9.87891l5.93994-9.87891
				h5.05078L204.30856,177.75906z"/>
			<path class="st4" d="M224.09714,163.40164h10.10107c2.41406,0,4.54736,0.46094,6.40039,1.38184
				c1.85303,0.92188,3.29297,2.21875,4.32031,3.8916c1.02686,1.67285,1.54053,3.62109,1.54053,5.84473
				s-0.51367,4.17188-1.54053,5.84473c-1.02734,1.67285-2.46729,2.96973-4.32031,3.89063s-3.98633,1.38184-6.40039,1.38184
				h-10.10107V163.40164z M233.94431,181.41238c2.22363,0,3.99658-0.61914,5.32031-1.8584
				c1.32324-1.23828,1.98535-2.91699,1.98535-5.03418s-0.66211-3.7959-1.98535-5.03516
				c-1.32373-1.23828-3.09668-1.8584-5.32031-1.8584h-4.70117v13.78613H233.94431z"/>
			<path class="st4" d="M267.55075,181.50809v4.12891h-17.2168v-22.23535h16.80273v4.12988h-11.68945v4.82813h10.32422v4.00195
				h-10.32422v5.14648H267.55075z"/>
			<path class="st4" d="M273.85446,185.30301c-1.64063-0.47559-2.95898-1.0957-3.9541-1.85742l1.74707-3.87598
				c0.95215,0.69922,2.08496,1.26074,3.39844,1.68359c1.3125,0.42383,2.62598,0.63574,3.93848,0.63574
				c1.46191,0,2.54102-0.2168,3.24023-0.65137c0.69922-0.43359,1.04785-1.01074,1.04785-1.73145
				c0-0.52832-0.20605-0.96875-0.61914-1.31738c-0.41309-0.34961-0.94238-0.62988-1.58789-0.8418
				c-0.64648-0.21191-1.51953-0.44531-2.62109-0.69922c-1.69434-0.40234-3.08105-0.80469-4.16113-1.20703
				s-2.00586-1.04785-2.7793-1.9375c-0.77246-0.88965-1.15918-2.0752-1.15918-3.55762c0-1.29102,0.34961-2.46191,1.04785-3.50977
				c0.69922-1.04883,1.75293-1.87891,3.16113-2.49414c1.4082-0.61328,3.12891-0.9209,5.16113-0.9209
				c1.41895,0,2.80566,0.16992,4.16113,0.50879s2.54199,0.8252,3.55762,1.46094l-1.58789,3.90723
				c-2.05469-1.16504-4.1084-1.74707-6.16211-1.74707c-1.44043,0-2.50488,0.23242-3.19238,0.69824
				c-0.68848,0.46582-1.03223,1.08008-1.03223,1.84277c0,0.76172,0.39648,1.3291,1.19141,1.69922
				c0.79395,0.37109,2.00586,0.73633,3.63672,1.0957c1.69336,0.40234,3.08105,0.80469,4.16113,1.20703
				s2.00586,1.03809,2.7793,1.90625c0.77246,0.86816,1.15918,2.04395,1.15918,3.52539c0,1.27051-0.35449,2.42969-1.06348,3.47852
				c-0.70996,1.04785-1.77441,1.87891-3.19238,2.49316c-1.41895,0.61426-3.14551,0.9209-5.17773,0.9209
				C277.19528,186.01785,275.49509,185.77957,273.85446,185.30301z"/>
			<path class="st4" d="M306.55563,180.87234h-10.32324l-1.96875,4.76465h-5.27344l9.91113-22.23535h5.08203l9.94238,22.23535
				h-5.40039L306.55563,180.87234z M304.93649,176.96512l-3.52637-8.5127l-3.52539,8.5127H304.93649z"/>
			<path class="st4" d="M330.4111,185.63699l-4.28906-6.19434h-0.25391h-4.47852v6.19434h-5.14551v-22.23535h9.62402
				c1.96973,0,3.67969,0.3291,5.12988,0.98535s2.56738,1.58789,3.35156,2.79492c0.7832,1.20703,1.1748,2.63672,1.1748,4.28809
				c0,1.65234-0.39648,3.07617-1.19043,4.27246c-0.79492,1.19629-1.92188,2.1123-3.38379,2.74805l4.9873,7.14648H330.4111z
				 M329.10837,168.59598c-0.80469-0.66797-1.98047-1.00098-3.52637-1.00098h-4.19238v7.75h4.19238
				c1.5459,0,2.72168-0.33789,3.52637-1.01563s1.20703-1.63086,1.20703-2.85938
				C330.3154,170.22098,329.91306,169.26297,329.10837,168.59598z"/>
			<path class="st4" d="M353.75681,185.63699l-4.28906-6.19434h-0.25391h-4.47852v6.19434h-5.14551v-22.23535h9.62402
				c1.96973,0,3.67969,0.3291,5.12988,0.98535s2.56738,1.58789,3.35156,2.79492c0.7832,1.20703,1.1748,2.63672,1.1748,4.28809
				c0,1.65234-0.39648,3.07617-1.19043,4.27246c-0.79492,1.19629-1.92188,2.1123-3.38379,2.74805l4.9873,7.14648H353.75681z
				 M352.45407,168.59598c-0.80469-0.66797-1.98047-1.00098-3.52637-1.00098h-4.19238v7.75h4.19238
				c1.5459,0,2.72168-0.33789,3.52637-1.01563s1.20703-1.63086,1.20703-2.85938
				C353.6611,170.22098,353.25876,169.26297,352.45407,168.59598z"/>
			<path class="st4" d="M367.46286,184.52567c-1.85352-0.99512-3.30371-2.36719-4.35156-4.11426
				c-1.04883-1.74707-1.57227-3.71094-1.57227-5.8916s0.52344-4.14551,1.57227-5.89258
				c1.04785-1.74707,2.49805-3.11816,4.35156-4.11328c1.85254-0.99512,3.93262-1.49316,6.24121-1.49316
				c2.30762,0,4.38379,0.49805,6.22559,1.49316c1.84277,0.99512,3.29297,2.36621,4.35254,4.11328
				c1.05859,1.74707,1.58789,3.71191,1.58789,5.89258s-0.5293,4.14453-1.58789,5.8916
				c-1.05957,1.74707-2.50977,3.11914-4.35254,4.11426c-1.8418,0.99512-3.91797,1.49219-6.22559,1.49219
				C371.39548,186.01785,369.3154,185.52078,367.46286,184.52567z M377.26169,180.72977
				c1.05859-0.60352,1.88965-1.44531,2.49316-2.52539s0.90527-2.30762,0.90527-3.68457s-0.30176-2.60449-0.90527-3.68457
				s-1.43457-1.92188-2.49316-2.52539s-2.24512-0.90527-3.55762-0.90527c-1.31348,0-2.49902,0.30176-3.55762,0.90527
				s-1.88965,1.44531-2.49316,2.52539s-0.90527,2.30762-0.90527,3.68457s0.30176,2.60449,0.90527,3.68457
				s1.43457,1.92188,2.49316,2.52539s2.24414,0.90527,3.55762,0.90527C375.01657,181.63504,376.20309,181.33328,377.26169,180.72977
				z"/>
			<path class="st4" d="M389.74509,163.40164h5.14551v18.04297h11.14941v4.19238h-16.29492V163.40164z"/>
			<path class="st4" d="M408.92966,163.40164h5.14551v18.04297h11.14941v4.19238h-16.29492V163.40164z"/>
			<path class="st4" d="M432.26071,184.52567c-1.85352-0.99512-3.30371-2.36719-4.35156-4.11426
				c-1.04883-1.74707-1.57227-3.71094-1.57227-5.8916s0.52344-4.14551,1.57227-5.89258
				c1.04785-1.74707,2.49805-3.11816,4.35156-4.11328c1.85254-0.99512,3.93262-1.49316,6.24121-1.49316
				c2.30762,0,4.38379,0.49805,6.22559,1.49316c1.84277,0.99512,3.29297,2.36621,4.35254,4.11328
				c1.05859,1.74707,1.58789,3.71191,1.58789,5.89258s-0.5293,4.14453-1.58789,5.8916
				c-1.05957,1.74707-2.50977,3.11914-4.35254,4.11426c-1.8418,0.99512-3.91797,1.49219-6.22559,1.49219
				C436.19333,186.01785,434.11325,185.52078,432.26071,184.52567z M442.05954,180.72977
				c1.05859-0.60352,1.88965-1.44531,2.49316-2.52539s0.90527-2.30762,0.90527-3.68457s-0.30176-2.60449-0.90527-3.68457
				s-1.43457-1.92188-2.49316-2.52539s-2.24512-0.90527-3.55762-0.90527c-1.31348,0-2.49902,0.30176-3.55762,0.90527
				s-1.88965,1.44531-2.49316,2.52539s-0.90527,2.30762-0.90527,3.68457s0.30176,2.60449,0.90527,3.68457
				s1.43457,1.92188,2.49316,2.52539s2.24414,0.90527,3.55762,0.90527C439.81442,181.63504,441.00095,181.33328,442.05954,180.72977
				z"/>
		</g>
	</g>
</g>
</svg>
